<?xml version="1.0" encoding="iso-8859-1"?>
<!-- Generator: Adobe Illustrator 19.0.0, SVG Export Plug-In . SVG Version: 6.00 Build 0)  -->
<svg version="1.1" id="Layer_1" xmlns="http://www.w3.org/2000/svg" xmlns:xlink="http://www.w3.org/1999/xlink" x="0px" y="0px"
	 viewBox="0 0 512 512" style="enable-background:new 0 0 512 512;" xml:space="preserve">
<polygon style="fill:#C9E3F7;" points="383.999,512 51.2,512 51.2,0 460.8,0 460.8,435.2 "/>
<g>
	<polygon style="fill:#78B9EB;" points="256,0 256,512 383.999,512 460.8,435.2 460.8,0 	"/>
	<rect x="128" y="102.4" style="fill:#78B9EB;" width="256" height="38.4"/>
	<rect x="128" y="179.2" style="fill:#78B9EB;" width="256" height="38.4"/>
	<rect x="128" y="256" style="fill:#78B9EB;" width="256" height="38.4"/>
</g>
<g>
	<rect x="256" y="102.4" style="fill:#3C5D76;" width="128" height="38.4"/>
	<rect x="256" y="179.2" style="fill:#3C5D76;" width="128" height="38.4"/>
	<rect x="256" y="256" style="fill:#3C5D76;" width="128" height="38.4"/>
	<polygon style="fill:#3C5D76;" points="383.999,512 383.999,435.2 460.8,435.2 	"/>
</g>
<g>
	<polygon style="fill:#FF9811;" points="155.153,460.8 150.628,438.172 128,433.647 191.357,370.29 218.51,397.443 	"/>
	<polygon style="fill:#FF9811;" points="230.668,460.8 235.192,438.172 257.82,433.647 194.463,370.29 167.31,397.443 	"/>
</g>
<circle style="fill:#FF5023;" cx="192.909" cy="384" r="38.4"/>
<path style="fill:#D80027;" d="M192.91,345.6c21.207,0,38.4,17.193,38.4,38.4s-17.193,38.4-38.4,38.4"/>
<g>
</g>
<g>
</g>
<g>
</g>
<g>
</g>
<g>
</g>
<g>
</g>
<g>
</g>
<g>
</g>
<g>
</g>
<g>
</g>
<g>
</g>
<g>
</g>
<g>
</g>
<g>
</g>
<g>
</g>
</svg>
