<?xml version="1.0" encoding="iso-8859-1"?>
<!-- Generator: Adobe Illustrator 19.0.0, SVG Export Plug-In . SVG Version: 6.00 Build 0)  -->
<svg version="1.1" id="Capa_1" xmlns="http://www.w3.org/2000/svg" xmlns:xlink="http://www.w3.org/1999/xlink" x="0px" y="0px"
	 viewBox="0 0 320 320" style="enable-background:new 0 0 320 320;" xml:space="preserve">
<g id="XMLID_501_">
	<polygon id="XMLID_502_" style="fill:#FF9811;" points="90,40 160,160 230,40 	"/>
	<polygon id="XMLID_503_" style="fill:#FFDA44;" points="160,160 0,160 90,40 	"/>
	<polygon id="XMLID_504_" style="fill:#FF5023;" points="160,160 320,160 230,40 	"/>
	<g id="XMLID_505_">
		<path id="XMLID_506_" style="fill:#006DF0;" d="M160,0v40c66.273,0,120,53.726,120,120s-53.727,120-120,120v40
			c88.365,0,160-71.634,160-160S248.365,0,160,0z"/>
		<path id="XMLID_507_" style="fill:#0052B4;" d="M40,160C40,93.726,93.727,40,160,40V0C71.635,0,0,71.634,0,160s71.635,160,160,160
			v-40C93.727,280,40,226.274,40,160z"/>
	</g>
	<circle id="XMLID_508_" style="fill:#FFFFFF;" cx="160" cy="160" r="80"/>
	<path id="XMLID_3_" style="fill:#006DF0;" d="M145.205,133.904c14.416-8.165,101.797-23.183,101.797-23.183
		s-57.81,67.224-72.226,75.389c-14.416,8.166-32.724,3.099-40.889-11.317C125.722,160.376,130.787,142.07,145.205,133.904z"/>
</g>
<g>
</g>
<g>
</g>
<g>
</g>
<g>
</g>
<g>
</g>
<g>
</g>
<g>
</g>
<g>
</g>
<g>
</g>
<g>
</g>
<g>
</g>
<g>
</g>
<g>
</g>
<g>
</g>
<g>
</g>
</svg>
